<?xml version="1.0" encoding="UTF-8" standalone="no"?>
<!-- Created with Inkscape (http://www.inkscape.org/) -->

<svg
   xmlns:dc="http://purl.org/dc/elements/1.1/"
   xmlns:cc="http://creativecommons.org/ns#"
   xmlns:rdf="http://www.w3.org/1999/02/22-rdf-syntax-ns#"
   xmlns:svg="http://www.w3.org/2000/svg"
   xmlns="http://www.w3.org/2000/svg"
   xmlns:sodipodi="http://sodipodi.sourceforge.net/DTD/sodipodi-0.dtd"
   xmlns:inkscape="http://www.inkscape.org/namespaces/inkscape"
   width="85.300255mm"
   height="73.623314mm"
   viewBox="0 0 85.300257 73.623314"
   version="1.1"
   id="svg8"
   inkscape:version="0.92.4 (5da689c313, 2019-01-14)"
   sodipodi:docname="logo.svg">
  <defs
     id="defs2" />
  <sodipodi:namedview
     id="base"
     pagecolor="#ffffff"
     bordercolor="#666666"
     borderopacity="1.0"
     inkscape:pageopacity="0.0"
     inkscape:pageshadow="2"
     inkscape:zoom="1.4"
     inkscape:cx="160.13612"
     inkscape:cy="51.45218"
     inkscape:document-units="mm"
     inkscape:current-layer="layer1"
     showgrid="false"
     fit-margin-top="1"
     fit-margin-left="1"
     fit-margin-right="1"
     fit-margin-bottom="1"
     inkscape:window-width="1920"
     inkscape:window-height="1017"
     inkscape:window-x="-8"
     inkscape:window-y="-8"
     inkscape:window-maximized="1" />
  <metadata
     id="metadata5">
    <rdf:RDF>
      <cc:Work
         rdf:about="">
        <dc:format>image/svg+xml</dc:format>
        <dc:type
           rdf:resource="http://purl.org/dc/dcmitype/StillImage" />
        <dc:title></dc:title>
      </cc:Work>
    </rdf:RDF>
  </metadata>
  <g
     inkscape:label="Layer 1"
     inkscape:groupmode="layer"
     id="layer1"
     transform="translate(-37.811199,-22.051194)">
    <g
       aria-label="SHRL"
       style="font-style:normal;font-variant:normal;font-weight:normal;font-stretch:normal;font-size:10.58333302px;line-height:1.25;font-family:'Asimov Pro';-inkscape-font-specification:'Asimov Pro';font-variant-ligatures:normal;font-variant-caps:normal;font-variant-numeric:normal;font-feature-settings:normal;text-align:start;letter-spacing:0px;word-spacing:0px;writing-mode:lr-tb;text-anchor:start;fill:#000000;fill-opacity:1;stroke:none;stroke-width:0.26458332"
       id="text817">
      <g
         id="g870">
        <g
           transform="translate(-4.2333333,-1.0583333)"
           id="g855">
          <path
             inkscape:connector-curvature="0"
             d="m 53.001332,71.478237 q -2.7432,0 -5.0292,-1.3716 -2.2352,-1.4224 -3.6068,-3.7084 -1.3208,-2.3368 -1.3208,-5.1308 v -2.3368 q 0,-0.254 0.254,-0.254 h 5.6896 q 0.2032,0 0.2032,0.254 v 2.3368 q 0,1.6764 1.1176,2.8956 1.1176,1.1684 2.6924,1.1684 1.5748,0 2.6924,-1.2192 1.1176,-1.2192 1.1176,-2.8448 0,-1.8796 -2.4384,-3.2512 -0.8128,-0.4572 -2.54,-1.4224 -1.7272,-0.9652 -3.2512,-1.8288 -2.794,-1.6256 -4.1656,-4.064 -1.3208,-2.4892 -1.3208,-5.588 0,-2.8448 1.3716,-5.08 1.3716,-2.286 3.6068,-3.6068 2.286,-1.3208 4.9276,-1.3208 2.6924,0 4.9276,1.3716 2.286,1.3208 3.6068,3.6068 1.3716,2.2352 1.3716,5.0292 v 4.1656 q 0,0.2032 -0.2032,0.2032 h -5.6896 q -0.2032,0 -0.2032,-0.2032 l -0.0508,-4.1656 q 0,-1.778 -1.1176,-2.8956 -1.1176,-1.1176 -2.6416,-1.1176 -1.5748,0 -2.6924,1.2192 -1.1176,1.1684 -1.1176,2.794 0,1.6764 0.7112,2.794 0.7112,1.1176 2.5908,2.1336 0.254,0.1524 0.9652,0.5588 0.762,0.3556 1.6256,0.8636 0.8636,0.4572 1.524,0.8128 0.7112,0.3556 0.8636,0.4572 2.54,1.4224 4.0132,3.5052 1.4732,2.032 1.4732,5.0292 0,2.8956 -1.3716,5.2324 -1.3208,2.286 -3.6068,3.6576 -2.2352,1.3208 -4.9784,1.3208 z"
             style="font-style:normal;font-variant:normal;font-weight:normal;font-stretch:normal;font-size:50.79999924px;font-family:Staatliches;-inkscape-font-specification:Staatliches;stroke-width:0.26458332"
             id="path819" />
          <path
             inkscape:connector-curvature="0"
             style="font-style:normal;font-variant:normal;font-weight:normal;font-stretch:normal;font-size:50.79999924px;font-family:Staatliches;-inkscape-font-specification:Staatliches;stroke-width:0.99999994"
             d="m 252.45703,134.60156 c -0.64,0 -0.96094,0.25558 -0.96094,0.76758 l -0.1914,131.9043 c 0,0.64 0.25558,0.96094 0.76758,0.96094 h 21.69726 c 0.512,0 0.76758,-0.32094 0.76758,-0.96094 v -56.44727 h 28.80078 v 10.99805 l 23.17578,-39.26563 -0.13672,-47.18945 c 0,-0.512 -0.32093,-0.76758 -0.96093,-0.76758 h -21.31055 c -0.512,0 -0.76758,0.25558 -0.76758,0.76758 v 52.22461 h -28.80078 l 0.19141,-52.22461 c 0,-0.512 -0.31899,-0.76758 -0.95899,-0.76758 z"
             transform="scale(0.26458333)"
             id="path821" />
        </g>
        <g
           transform="translate(-9.862447,11.354861)"
           id="g859">
          <path
             inkscape:connector-curvature="0"
             style="font-style:normal;font-variant:normal;font-weight:normal;font-stretch:normal;font-size:50.79999924px;font-family:Staatliches;-inkscape-font-specification:Staatliches;stroke-width:0.99999994"
             d="m 394.26367,136.50781 -12.47461,21.13477 h 0.57617 c 4.096,0 7.61655,1.47201 10.56055,4.41601 3.072,2.944 4.60742,6.4626 4.60742,10.5586 0,4.224 -1.53542,7.80795 -4.60742,10.75195 -3.072,2.944 -6.59255,4.41602 -10.56055,4.41602 h -16.51171 v -3.14454 l -23.29883,39.47266 -0.125,43.16016 c 0,0.64 0.25558,0.96094 0.76758,0.96094 h 21.69726 c 0.512,-10e-6 0.76758,-0.32094 0.76758,-0.96094 l 0.19141,-56.44727 h 12.67187 c 4.736,0 8.7043,1.7276 11.9043,5.1836 3.328,3.328 4.99219,7.29629 4.99219,11.90429 v 39.74414 c -10e-6,0.384 0.25557,0.57618 0.76757,0.57618 h 21.69727 c 0.64,-10e-6 0.95898,-0.32094 0.95898,-0.96094 l -0.1914,-39.35938 c 0,-10.368 -3.45714,-19.39226 -10.36914,-27.07226 1.536,-1.28 3.26554,-3.19977 5.18554,-5.75977 1.92,-2.688 3.58419,-5.88761 4.99219,-9.59961 1.408,-3.84 2.11133,-8.12923 2.11133,-12.86523 0,-7.168 -1.7276,-13.56722 -5.1836,-19.19922 -3.45599,-5.76 -8.12957,-10.30481 -14.01757,-13.63281 -2.27853,-1.36712 -4.65058,-2.45103 -7.10938,-3.27735 z"
             transform="scale(0.26458333)"
             id="path823" />
          <path
             inkscape:connector-curvature="0"
             d="m 115.3115,71.222418 q -0.2032,0 -0.2032,-0.254 l 0.0508,-34.8488 q 0,-0.254 0.254,-0.254 h 5.6388 q 0.254,0 0.254,0.254 l -0.0508,28.8544 h 10.4648 q 0.254,0 0.254,0.254 v 5.7404 q 0,0.254 -0.254,0.254 z"
             style="font-style:normal;font-variant:normal;font-weight:normal;font-stretch:normal;font-size:50.79999924px;font-family:Staatliches;-inkscape-font-specification:Staatliches;stroke-width:0.26458332"
             id="path825" />
        </g>
        <path
           inkscape:connector-curvature="0"
           id="path861"
           d="M 59.328461,93.875159 103.42794,23.850542"
           style="fill:none;stroke:#000000;stroke-width:3;stroke-linecap:butt;stroke-linejoin:miter;stroke-miterlimit:4;stroke-dasharray:6.00000017, 3.00000008;stroke-dashoffset:2.10000014;stroke-opacity:1" />
      </g>
    </g>
  </g>
</svg>
