<?xml version="1.0" standalone="no"?>
<!DOCTYPE svg PUBLIC "-//W3C//DTD SVG 20010904//EN"
 "http://www.w3.org/TR/2001/REC-SVG-20010904/DTD/svg10.dtd">
<svg version="1.0" xmlns="http://www.w3.org/2000/svg"
 width="644.000000pt" height="644.000000pt" viewBox="0 0 644.000000 644.000000"
 preserveAspectRatio="xMidYMid meet">
<metadata>
Created by potrace 1.11, written by Peter Selinger 2001-2013
</metadata>
<g transform="translate(0.000000,644.000000) scale(0.100000,-0.100000)"
fill="#000000" stroke="none">
<path d="M4834 5885 c-10 -19 -22 -35 -26 -35 -5 0 -8 -5 -8 -11 0 -5 -21 -42
-46 -81 -36 -55 -44 -75 -37 -87 6 -9 14 -16 19 -16 5 0 42 -22 82 -49 83 -54
74 -57 133 39 16 28 45 74 64 104 l34 54 -72 47 c-71 46 -112 70 -120 70 -2 0
-12 -16 -23 -35z"/>
<path d="M4540 5421 c-22 -33 -40 -65 -40 -70 0 -6 -4 -11 -9 -11 -5 0 -11 -8
-15 -17 -3 -10 -33 -60 -66 -111 -33 -51 -60 -99 -60 -106 0 -7 19 -23 43 -36
23 -13 44 -26 47 -30 8 -9 80 -50 89 -50 4 0 61 83 125 185 l117 185 -28 25
c-15 13 -33 25 -39 25 -5 0 -19 8 -30 18 -20 18 -78 52 -88 52 -3 0 -23 -27
-46 -59z"/>
<path d="M740 5089 c-92 -15 -115 -20 -186 -48 -176 -68 -326 -213 -409 -394
-69 -152 -84 -330 -44 -516 7 -31 13 -59 13 -63 1 -3 4 -10 8 -14 5 -4 8 -13
8 -20 0 -21 47 -119 83 -171 44 -66 142 -162 213 -210 77 -51 220 -133 234
-133 5 0 10 -4 10 -8 0 -4 12 -13 28 -19 15 -7 45 -23 67 -36 22 -13 67 -38
99 -56 139 -76 204 -131 232 -196 40 -96 8 -231 -71 -305 -49 -46 -70 -61 -94
-67 -14 -3 -31 -9 -36 -14 -6 -4 -40 -6 -76 -5 -79 4 -145 33 -194 88 -34 37
-81 118 -69 118 4 0 2 6 -3 13 -6 6 -11 70 -12 142 -2 71 -5 132 -7 135 -8 7
-428 7 -445 -1 -13 -6 -15 -29 -14 -141 2 -151 8 -196 37 -288 18 -57 73 -176
88 -190 3 -3 18 -22 34 -43 64 -87 187 -189 276 -229 61 -28 110 -47 110 -43
0 2 15 -1 33 -6 17 -6 46 -12 62 -15 45 -5 196 -5 225 1 14 3 41 8 60 11 135
23 324 148 427 283 62 80 119 215 140 326 9 50 9 249 0 293 -17 77 -69 201
-89 210 -5 2 -8 9 -8 16 0 22 -152 169 -225 218 -38 25 -110 67 -160 94 -49
26 -107 58 -127 71 -21 13 -38 20 -38 17 0 -4 -6 -1 -14 5 -7 6 -35 23 -62 37
-140 76 -183 108 -244 182 -35 43 -54 121 -54 217 0 78 3 97 26 141 27 52 86
112 135 137 25 13 90 32 103 30 3 0 26 -3 52 -6 97 -12 186 -80 224 -172 21
-51 24 -85 27 -327 1 -64 5 -119 8 -123 8 -7 435 -9 447 -1 8 5 7 416 -1 451
-35 146 -73 230 -145 327 -103 138 -272 248 -433 284 -72 16 -191 22 -249 13z"/>
<path d="M1854 5049 c-3 -6 -9 -2607 -5 -2649 1 -13 32 -15 223 -14 123 1 226
2 231 3 4 0 7 258 7 571 l0 570 23 1 c27 1 516 1 538 0 13 -1 15 -17 14 -101
-1 -55 2 -100 5 -100 3 0 26 35 51 77 24 42 54 93 66 112 13 20 26 43 30 51 3
8 14 26 23 40 10 14 26 41 36 60 28 50 134 230 154 260 9 14 27 45 40 70 14
25 31 53 40 64 13 16 15 82 15 502 0 320 -3 484 -10 485 -5 1 -108 2 -227 3
-142 1 -219 -2 -221 -9 -2 -5 -3 -243 -3 -527 1 -285 -1 -518 -4 -519 -7 -1
-530 -1 -553 0 -17 1 -18 26 -15 526 2 345 0 525 -7 526 -41 5 -448 3 -451 -2z"/>
<path d="M4118 4752 c-54 -86 -107 -172 -119 -189 l-21 -33 79 -49 c43 -28 83
-55 90 -60 13 -12 43 -4 43 10 0 7 36 69 70 119 6 8 26 40 45 70 19 30 39 60
45 67 5 7 10 15 10 18 0 3 12 23 26 45 15 22 25 42 23 44 -2 1 -33 20 -69 42
-36 21 -67 42 -70 45 -5 7 -47 29 -52 28 -2 0 -47 -71 -100 -157z"/>
<path d="M3839 4308 c-7 -13 -36 -60 -65 -105 -30 -46 -54 -85 -54 -88 0 -3
-5 -11 -10 -18 -6 -7 -29 -41 -51 -76 l-41 -65 28 -20 c34 -26 91 -61 124 -78
14 -7 28 -17 31 -22 4 -5 15 6 24 24 9 18 21 38 27 44 5 6 52 78 103 161 l94
149 -27 18 c-72 50 -152 98 -161 98 -6 0 -16 -10 -22 -22z"/>
<path d="M5098 4083 c-2 -10 -3 -610 -3 -1333 l0 -1315 635 0 635 0 0 227 c0
125 -3 230 -7 233 -4 4 -186 7 -405 7 l-398 0 0 1096 0 1097 -226 3 c-210 2
-227 1 -231 -15z"/>
<path d="M4210 3969 c-36 -61 -75 -127 -87 -148 -13 -20 -28 -47 -35 -61 -7
-14 -15 -27 -19 -30 -11 -9 -37 -70 -31 -71 4 -1 23 -2 43 -4 87 -8 200 -95
237 -185 12 -28 19 -70 20 -109 0 -64 -22 -151 -39 -151 -5 0 -9 -6 -9 -14 0
-24 -97 -101 -152 -121 -43 -15 -84 -19 -230 -20 -98 0 -183 2 -187 5 -5 3
-11 16 -13 30 -4 23 -5 24 -13 5 -5 -11 -28 -50 -52 -88 -24 -37 -43 -69 -43
-71 0 -2 -32 -57 -72 -122 -39 -66 -80 -135 -90 -154 -10 -19 -27 -48 -38 -65
-11 -16 -23 -36 -26 -44 -4 -8 -31 -54 -61 -103 -29 -49 -53 -93 -53 -98 0 -6
-4 -10 -8 -10 -13 0 -13 -878 -1 -886 13 -8 439 -7 448 1 3 4 7 217 8 473 1
257 2 512 3 567 l0 101 148 -1 c157 -2 196 -7 253 -35 51 -26 125 -103 157
-163 l27 -52 3 -445 c2 -244 5 -446 7 -448 3 -3 74 -4 341 -3 l122 1 -3 452
c-2 380 -5 464 -19 523 -34 144 -66 208 -173 354 -10 13 -6 23 27 58 126 137
197 315 202 503 1 39 -10 155 -17 185 -17 73 -26 98 -59 165 -78 154 -193 268
-351 347 -103 52 -92 56 -165 -68z"/>
<path d="M3449 3688 c-24 -38 -52 -82 -61 -96 -10 -15 -22 -36 -28 -47 -6 -11
-30 -51 -55 -90 -25 -38 -45 -72 -45 -76 0 -5 157 -106 181 -117 4 -2 24 25
45 60 21 35 41 65 44 68 4 3 26 37 49 75 23 39 57 93 76 122 l34 51 -67 45
c-37 24 -81 51 -98 60 l-30 16 -45 -71z"/>
<path d="M3097 3127 c-19 -29 -40 -64 -47 -77 -7 -14 -16 -27 -20 -30 -4 -3
-20 -27 -36 -53 -16 -27 -36 -59 -44 -72 -8 -13 -25 -39 -37 -59 l-22 -35 37
-22 c20 -13 46 -28 58 -35 12 -6 38 -23 59 -37 l38 -26 72 112 c81 126 125
199 140 228 5 10 13 19 17 19 5 0 8 6 8 14 0 12 -81 76 -96 76 -3 0 -22 11
-42 25 -20 14 -40 25 -44 25 -4 0 -23 -24 -41 -53z"/>
<path d="M2763 2597 c-4 -7 -12 -20 -18 -29 -5 -9 -40 -65 -77 -123 -38 -59
-68 -110 -68 -115 0 -5 -4 -10 -8 -12 -5 -1 -20 -23 -35 -47 l-26 -45 67 -42
c94 -60 125 -76 131 -66 3 5 42 66 86 136 44 70 88 139 97 154 29 45 50 84 46
86 -2 1 -29 18 -60 39 -32 20 -62 37 -68 37 -5 0 -10 4 -10 8 0 5 -11 14 -25
20 -18 9 -26 8 -32 -1z"/>
<path d="M2389 2002 c-9 -15 -54 -85 -99 -157 -46 -71 -91 -144 -102 -161
l-18 -31 67 -43 c38 -23 80 -51 95 -61 l28 -20 19 33 c11 18 24 38 28 43 5 6
24 37 44 70 20 33 61 99 92 147 62 96 62 96 -6 133 -20 11 -37 23 -37 27 0 5
-6 8 -12 8 -7 0 -24 9 -38 20 -33 26 -42 25 -61 -8z"/>
<path d="M2029 1432 c-9 -15 -62 -100 -119 -190 -56 -90 -101 -164 -99 -166
10 -9 179 -116 184 -116 4 0 42 55 70 102 49 84 121 194 127 196 4 2 8 8 8 14
0 5 9 23 20 39 l21 28 -43 27 c-24 15 -67 42 -96 60 -29 19 -53 34 -55 34 -1
0 -9 -12 -18 -28z"/>
<path d="M1639 813 c-55 -86 -67 -105 -76 -123 -4 -8 -13 -21 -20 -28 -7 -7
-13 -16 -13 -20 0 -7 154 -107 181 -117 9 -3 25 13 49 52 19 32 37 62 39 68 2
5 7 12 10 15 14 11 61 91 61 102 0 7 -14 19 -30 26 -17 8 -37 20 -44 27 -13
14 -100 65 -110 65 -2 0 -24 -30 -47 -67z"/>
</g>
</svg>
